<?xml version="1.0" encoding="utf-8"?>
<!-- Generator: Adobe Illustrator 19.0.0, SVG Export Plug-In . SVG Version: 6.00 Build 0)  -->
<svg version="1.1" id="Layer_1" xmlns="http://www.w3.org/2000/svg" xmlns:xlink="http://www.w3.org/1999/xlink" x="0px" y="0px"
	 viewBox="0 0 757 43.3" style="enable-background:new 0 0 757 43.3;" xml:space="preserve">
<style type="text/css">
	.st0{fill:#F2F2F2;}
</style>
<g id="XMLID_1_">
	<path id="XMLID_3_" class="st0" d="M0,0v22.2c6-0.3,12.2,0.3,18.1,1.5c23.5,5.1,45.2,18,69.2,19.5c33.7,2.1,65.3-18.5,99-18.2
		c20.6,0.2,40.2,8.1,60.5,11.8c24.4,4.4,49.5,2.5,74.2,0.6c33.3-2.6,66.6-5.2,99.9-7.7c21.3-1.7,42.8-3.3,64-0.7
		c33.7,4.1,68,18.7,100.6,8.9c23.6-7.1,43.6-26.5,68.2-26.9c23.4-0.4,43.3,16.6,66,22.3c12.2,3,25.3,2.4,37.3-1.3V0H0z"/>
</g>
</svg>
